<svg width="70" height="30" viewBox="0 0 70 30" fill="none" xmlns="http://www.w3.org/2000/svg">
<path d="M31.9167 0.247849C29.3333 0.785779 28.2083 4.19957 29.8333 6.47544C30.6875 7.67543 32.9583 8.23406 34.5208 7.63406C36.3958 6.93061 37.375 4.46854 36.5625 2.52371C35.75 0.640952 34.0625 -0.186634 31.9167 0.247849Z" fill="#5326D4"/>
<path d="M4.27083 0.620895C1.97917 0.703655 0.0833333 0.786413 0.0625 0.807102C0.0208333 0.807102 0 1.36572 0 2.04848V3.24848L1.16667 3.37262C2.625 3.51745 3.25 3.93124 3.52083 4.90365C3.66667 5.40021 3.75 9.22779 3.75 15.1657C3.75 26.6278 3.83333 26.2554 1.27083 26.7312L0 26.9795V28.2002V29.4209L9.75 29.3175C17.9167 29.2554 19.6875 29.1726 20.7917 28.9037C23.5417 28.1795 25.4375 26.814 26.3958 24.8692C26.9167 23.8347 26.9792 23.4623 26.9792 21.8278C26.9583 18.1864 25.25 16.0761 21.2708 14.6899C19.5208 14.0899 19.0625 13.8623 19.6042 13.8623C20.3958 13.8623 23.2708 12.2071 24.1875 11.2347C25.3542 10.014 25.7083 9.04159 25.6875 7.20021C25.6875 4.88297 24.4583 2.95883 22.3333 1.88297C19.6667 0.538137 15.5833 0.248482 4.27083 0.620895ZM14.9792 3.53814C16.5417 4.13814 17.2708 5.6071 17.2917 8.06917C17.2917 11.2761 16.1875 12.4968 13.0417 12.745L11.4583 12.8899V7.96572V3.04159L12.9375 3.18641C13.75 3.26917 14.6667 3.43469 14.9792 3.53814ZM16.0625 15.9933C16.9375 16.345 17.7917 17.2968 18.1667 18.3519C18.5833 19.5519 18.5208 23.0485 18.0625 24.2485C17.3958 25.9657 15.75 26.8761 13.8958 26.6071C12.6875 26.4209 11.9375 25.8416 11.6667 24.8692C11.5625 24.4554 11.4583 22.1588 11.4583 19.7795V15.4554L13.3958 15.5795C14.4583 15.6416 15.6667 15.8278 16.0625 15.9933Z" fill="#5326D4"/>
<path d="M44.3125 6.35172C44.2292 6.41379 44.1667 6.62069 44.1667 6.80689C44.1667 7.44827 43.1667 9.26896 42.3958 10.0345C41.4167 10.9862 39.8542 11.731 38.3958 11.9172L37.2917 12.0414V13.2621V14.4828H38.5417H39.7917V20.2345C39.7917 26.9379 39.875 27.4345 41.375 28.7379C42.5833 29.7931 43.8125 30.0828 46.4375 29.9379C49.2708 29.7931 50.9792 28.9655 52.0833 27.1862L52.5417 26.4621L53.5417 27.3931C55.4375 29.1517 57.8333 30 60.9375 30C63.0625 30 64.5208 29.669 66.1875 28.8207C67.3958 28.2207 69.375 26.5448 69.375 26.1103C69.375 25.9655 68.9375 25.5931 68.3958 25.2621L67.4167 24.6414L66.4167 25.5724C65.1667 26.731 64.1667 27.1655 62.7083 27.1655C60.1042 27.1655 58.6458 25.4069 58.2292 21.6621L58.1042 20.4828H64.0417H70V19.6552C70 18.331 69.5833 16.7379 68.8958 15.4552C65.8333 9.68276 55.2708 9.86896 51.8125 15.7448C50.4792 18 50.25 21.7862 51.2917 24.3517L51.8125 25.6138L51.3125 25.4276C50.5417 25.1379 50.3125 25.2 50 25.7379C49.6458 26.4207 48.5208 26.9793 47.875 26.8345C46.9583 26.6069 46.875 26.0276 46.875 20.069V14.4828H49.4792H52.0833V13.2414V12H49.4792H46.875V9.10345V6.20689H45.6667C45 6.20689 44.375 6.26896 44.3125 6.35172ZM62.0625 14.3793C62.7292 14.9379 63.0208 15.6621 63.25 17.2138L63.375 18.2069H60.7292H58.0833L58.2292 17.1103C58.4375 15.7034 58.8958 14.5448 59.4375 14.1724C60.1458 13.6759 61.3333 13.7793 62.0625 14.3793Z" fill="#5326D4"/>
<path d="M31.1458 12.0203C28.5208 12.4548 26.2917 12.8065 26.2083 12.8065C26.1042 12.8272 26.0417 13.3858 26.0417 14.0686V15.3099H26.8542C29.125 15.3099 29.375 15.8686 29.375 21.103C29.375 26.3375 29.125 26.8961 26.8542 26.8961H26.0417V28.1375V29.3789H32.7083H39.375V28.1375V26.8961H38.6458C37.6875 26.8961 36.9792 26.5444 36.6875 25.9237C36.5417 25.5927 36.4583 23.0893 36.4583 18.3099C36.4583 12.7237 36.3958 11.172 36.2083 11.1927C36.0625 11.2134 33.7917 11.5858 31.1458 12.0203Z" fill="#5326D4"/>
</svg>
